<svg width="900" height="56" viewBox="0 0 900 56" fill="none" xmlns="http://www.w3.org/2000/svg">
<rect width="900" height="56" fill="white"/>
<path d="M490.342 11.791V14.6946C487.694 12.2931 484.181 10.8283 480.333 10.8283C472.106 10.8283 465.412 17.5227 465.412 25.7496C465.412 33.9764 472.106 40.6708 480.333 40.6708C484.181 40.6708 487.694 39.206 490.342 36.8045V39.9345H496.493V11.791H490.342ZM480.331 34.4786C475.517 34.4786 471.602 30.5629 471.602 25.7496C471.602 20.9363 475.517 17.0206 480.331 17.0206C485.144 17.0206 489.06 20.9363 489.06 25.7496C489.06 30.5629 485.144 34.4786 480.331 34.4786Z" fill="#160245"/>
<path d="M461.998 0.00491333H455.848V39.9345H461.998V0.00491333Z" fill="#160245"/>
<path d="M404.608 25.8458C406.838 33.136 414.084 34.5462 418.986 38.7143C425.214 44.0115 426.583 50.4145 437.092 47.079C459.199 40.062 456.314 4.28745 435.497 0.202643C428.123 -1.24395 428.618 5.44264 417.7 7.95336C406.697 10.4823 402.267 18.1914 404.608 25.8458ZM429.827 40.6838C421.601 40.6838 414.906 33.9894 414.906 25.7626C414.906 17.5357 421.601 10.8413 429.827 10.8413C438.054 10.8413 444.749 17.5357 444.749 25.7626C444.749 33.992 438.054 40.6838 429.827 40.6838Z" fill="#160245"/>
</svg>
