<svg width="93" height="48" viewBox="0 0 93 48" fill="none" xmlns="http://www.w3.org/2000/svg">
<path d="M86.3424 11.791V14.6946C83.6938 12.2931 80.1814 10.8283 76.3333 10.8283C68.1065 10.8283 61.4121 17.5227 61.4121 25.7496C61.4121 33.9764 68.1065 40.6708 76.3333 40.6708C80.1814 40.6708 83.6938 39.206 86.3424 36.8045V39.9345H92.493V11.791H86.3424ZM76.3307 34.4786C71.5174 34.4786 67.6018 30.5629 67.6018 25.7496C67.6018 20.9363 71.5174 17.0206 76.3307 17.0206C81.144 17.0206 85.0597 20.9363 85.0597 25.7496C85.0597 30.5629 81.144 34.4786 76.3307 34.4786Z" fill="#160245"/>
<path d="M57.9983 0.00491333H51.8477V39.9345H57.9983V0.00491333Z" fill="#160245"/>
<path d="M0.608255 25.8458C2.83798 33.136 10.084 34.5462 14.9857 38.7143C21.2144 44.0115 22.5829 50.4145 33.0915 47.079C55.1989 40.062 52.3135 4.28745 31.4966 0.202643C24.1232 -1.24395 24.6175 5.44264 13.7004 7.95336C2.69749 10.4823 -1.73335 18.1914 0.608255 25.8458ZM25.8274 40.6838C17.6005 40.6838 10.9061 33.9894 10.9061 25.7626C10.9061 17.5357 17.6005 10.8413 25.8274 10.8413C34.0542 10.8413 40.7486 17.5357 40.7486 25.7626C40.7486 33.992 34.0542 40.6838 25.8274 40.6838Z" fill="#160245"/>
</svg>
