<svg width="18" height="23" viewBox="0 0 18 23" fill="none" xmlns="http://www.w3.org/2000/svg">
<path d="M14.7143 9H3.28571C2.02335 9 1 10.0745 1 11.4V18.6C1 19.9255 2.02335 21 3.28571 21H14.7143C15.9767 21 17 19.9255 17 18.6V11.4C17 10.0745 15.9767 9 14.7143 9Z" stroke="#060D12" stroke-width="1.5" stroke-linecap="round" stroke-linejoin="round"/>
<path d="M5 9V6C5 4.93913 5.42143 3.92172 6.17157 3.17157C6.92172 2.42143 7.93913 2 9 2C10.0609 2 11.0783 2.42143 11.8284 3.17157C12.5786 3.92172 13 4.93913 13 6V9" stroke="#060D12" stroke-width="1.5" stroke-linecap="round" stroke-linejoin="round"/>
</svg>
